<svg width="191" height="42" viewBox="0 0 191 42" fill="none" xmlns="http://www.w3.org/2000/svg">
<path d="M77.155 32L69.535 21.065L76.405 11H82.06L75.055 21.065L82.96 32H77.155ZM52.15 32L59.995 21.35L53.125 11H58.945L65.515 21.125L57.73 32H52.15ZM65.05 32V23.075H61.495V18.935H65.05V11H70.03V18.935H73.615V23.075H70.03V32H65.05ZM86.4583 32.405L84.7033 27.875C86.0333 27.635 87.1933 27.255 88.1833 26.735C89.1833 26.205 90.0683 25.485 90.8383 24.575C91.6083 23.665 92.3233 22.51 92.9833 21.11L97.7683 11H103.543L97.3783 23.27C96.6083 24.82 95.8233 26.14 95.0233 27.23C94.2333 28.32 93.3983 29.225 92.5183 29.945C91.6483 30.655 90.7133 31.205 89.7133 31.595C88.7133 31.985 87.6283 32.255 86.4583 32.405ZM92.0683 26.165L83.9833 11H90.0133L95.4433 21.98L92.0683 26.165ZM105.745 32V11H114.16C115.73 11 117.12 11.275 118.33 11.825C119.54 12.365 120.49 13.155 121.18 14.195C121.88 15.235 122.23 16.485 122.23 17.945C122.23 19.425 121.91 20.68 121.27 21.71C120.63 22.74 119.7 23.525 118.48 24.065C117.26 24.605 115.78 24.875 114.04 24.875H110.725V32H105.745ZM110.725 20.705H113.92C114.97 20.705 115.785 20.5 116.365 20.09C116.955 19.67 117.25 18.98 117.25 18.02C117.25 17.06 116.945 16.365 116.335 15.935C115.735 15.495 114.94 15.275 113.95 15.275H110.725V20.705ZM125.461 32V11H130.441V18.785H138.721V11H143.701V32H138.721V23.33H130.441V32H125.461ZM146.294 32L154.139 11H159.914L167.834 32H162.224L160.739 27.74H153.209L151.754 32H146.294ZM154.334 23.585H159.584L156.944 16.325L154.334 23.585ZM170.234 32.405L168.614 27.86C169.284 27.65 169.854 27.415 170.324 27.155C170.804 26.885 171.199 26.53 171.509 26.09C171.819 25.64 172.059 25.045 172.229 24.305C172.409 23.565 172.529 22.625 172.589 21.485C172.659 20.335 172.694 18.92 172.694 17.24V11H188.519V32H183.539V15.545H177.404V17.015C177.404 19.165 177.334 21.035 177.194 22.625C177.064 24.215 176.839 25.575 176.519 26.705C176.199 27.835 175.764 28.775 175.214 29.525C174.664 30.275 173.979 30.88 173.159 31.34C172.349 31.8 171.374 32.155 170.234 32.405Z" fill="#141400"/>
<circle cx="21" cy="21" r="21" fill="#FDD8A1"/>
</svg>
