<svg width="247" height="54" viewBox="0 0 247 54" fill="none" xmlns="http://www.w3.org/2000/svg">
<g clip-path="url(#clip0_83_11)">
<path d="M76.5231 13.0694H76.0279V4.77427C76.0279 4.4394 75.9231 4.16193 75.7231 3.94188C75.523 3.73139 75.2373 3.61658 74.8849 3.61658C74.5324 3.61658 74.2467 3.72182 74.0467 3.94188C73.8466 4.15237 73.7419 4.42983 73.7419 4.77427V13.0694H68.7508V4.77427C68.7508 4.4394 68.6461 4.16193 68.446 3.94188C68.246 3.73139 67.9603 3.61658 67.6078 3.61658C67.2554 3.61658 66.9697 3.72182 66.7696 3.94188C66.5696 4.15237 66.4648 4.42983 66.4648 4.77427V14.0549C66.4648 14.3802 66.5696 14.6577 66.7887 14.8777C67.0078 15.0978 67.2745 15.203 67.6078 15.203H75.3706V16.686C75.3706 17.0209 75.4754 17.2984 75.6754 17.5184C75.8755 17.7289 76.1612 17.8342 76.5136 17.8342C76.866 17.8342 77.1518 17.7289 77.3518 17.5184C77.5518 17.3079 77.6566 17.0305 77.6566 16.686V14.2176C77.6566 13.8923 77.5518 13.6148 77.3328 13.3947C77.1137 13.1747 76.8375 13.0694 76.5136 13.0694H76.5231Z" fill="white"/>
<path d="M80.5331 15.203H87.6482C87.934 15.203 88.1816 15.0977 88.3912 14.8777C88.6007 14.6576 88.7055 14.4184 88.7055 14.1314C88.7055 13.8444 88.6007 13.5956 88.3912 13.3851C88.1816 13.1746 87.934 13.0694 87.6482 13.0694H81.6761V10.4383H86.01C86.2957 10.4383 86.5243 10.3426 86.7148 10.1608C86.8958 9.97904 86.991 9.73985 86.991 9.45281C86.991 9.16578 86.8958 8.93616 86.7148 8.74481C86.5338 8.56302 86.2957 8.46734 86.01 8.46734H81.6761V5.83623H87.4768C87.7625 5.83623 88.0102 5.73099 88.2197 5.51093C88.4293 5.30044 88.5341 5.05168 88.5341 4.76465C88.5341 4.47762 88.4293 4.22886 88.2197 4.01837C88.0102 3.80788 87.7625 3.70264 87.4768 3.70264H80.5236C80.1998 3.70264 79.9235 3.80788 79.7045 4.02794C79.4854 4.24799 79.3806 4.52546 79.3806 4.85076V14.0453C79.3806 14.3706 79.4854 14.6481 79.7045 14.8681C79.9235 15.0882 80.1902 15.1934 80.5236 15.1934L80.5331 15.203Z" fill="white"/>
<path d="M91.3249 15.2795C91.6868 15.2795 91.963 15.1743 92.1631 14.9638C92.3631 14.7533 92.4679 14.4759 92.4679 14.1314V10.3522H97.6208V14.1314C97.6208 14.4759 97.7256 14.7437 97.9256 14.9638C98.1257 15.1743 98.4114 15.2795 98.7638 15.2795C99.1163 15.2795 99.402 15.1743 99.602 14.9638C99.802 14.7533 99.9068 14.4759 99.9068 14.1314V4.77422C99.9068 4.44892 99.802 4.17146 99.583 3.9514C99.3639 3.73134 99.0877 3.6261 98.7638 3.6261C98.44 3.6261 98.1638 3.73134 97.9447 3.9514C97.7256 4.17146 97.6208 4.43935 97.6208 4.77422V8.39081H92.4679V4.77422C92.4679 4.44892 92.3631 4.17146 92.144 3.9514C91.9249 3.73134 91.6582 3.6261 91.3249 3.6261C90.9915 3.6261 90.7248 3.73134 90.5057 3.9514C90.2867 4.17146 90.1819 4.43935 90.1819 4.77422V14.141C90.1819 14.4854 90.2867 14.7533 90.4867 14.9734C90.6867 15.1839 90.9724 15.2891 91.3249 15.2891V15.2795Z" fill="white"/>
<path d="M105.136 5.83628V14.1315C105.136 14.4759 105.241 14.7438 105.441 14.9638C105.641 15.1743 105.927 15.2796 106.279 15.2796C106.631 15.2796 106.908 15.1743 107.117 14.9638C107.327 14.7534 107.431 14.4759 107.431 14.1315V5.83628H110.213C110.537 5.83628 110.813 5.73103 111.032 5.52054C111.251 5.31005 111.356 5.06129 111.356 4.7647C111.356 4.4681 111.251 4.21934 111.032 4.00885C110.813 3.79836 110.546 3.69312 110.213 3.69312H102.364C102.04 3.69312 101.764 3.79836 101.545 4.00885C101.326 4.21934 101.221 4.4681 101.221 4.7647C101.221 5.06129 101.326 5.31005 101.545 5.52054C101.764 5.73103 102.031 5.83628 102.364 5.83628H105.145H105.136Z" fill="white"/>
<path d="M113.804 15.2795C114.127 15.2795 114.404 15.1743 114.623 14.9542C114.842 14.7342 114.947 14.4663 114.947 14.1314V11.5864H117.566C118.919 11.5864 120.023 11.2037 120.871 10.4383C121.719 9.67287 122.147 8.74481 122.147 7.64452C122.147 6.54424 121.719 5.61617 120.871 4.85076C120.023 4.08534 118.919 3.70264 117.566 3.70264H113.804C113.48 3.70264 113.204 3.80788 112.984 4.02794C112.765 4.24799 112.661 4.52546 112.661 4.85076V14.1314C112.661 14.4567 112.765 14.7342 112.984 14.9542C113.204 15.1743 113.47 15.2795 113.804 15.2795ZM114.947 5.83623H117.566C118.29 5.83623 118.833 5.99888 119.214 6.32418C119.595 6.64948 119.776 7.0896 119.776 7.63495C119.776 8.18031 119.585 8.62043 119.214 8.94573C118.833 9.27103 118.29 9.43368 117.566 9.43368H114.947V5.81709V5.83623Z" fill="white"/>
<path d="M67.6174 32.1665C67.9793 32.1665 68.2555 32.0613 68.4556 31.8508C68.6556 31.6403 68.7604 31.3628 68.7604 31.0184V22.7232H73.9895V31.0184C73.9895 31.3628 74.0943 31.6307 74.2943 31.8508C74.4943 32.0613 74.7801 32.1665 75.1325 32.1665C75.4849 32.1665 75.7707 32.0613 75.9707 31.8508C76.1707 31.6403 76.2755 31.3628 76.2755 31.0184V21.7377C76.2755 21.4124 76.1707 21.135 75.9517 20.9149C75.7326 20.6948 75.4659 20.5896 75.1325 20.5896H67.6078C67.284 20.5896 67.0078 20.6948 66.7887 20.9149C66.5696 21.135 66.4648 21.4124 66.4648 21.7377V31.0184C66.4648 31.3628 66.5696 31.6307 66.7696 31.8508C66.9697 32.0613 67.2554 32.1665 67.6078 32.1665H67.6174Z" fill="white"/>
<path d="M80.0378 32.1665C80.3616 32.1665 80.6378 32.0612 80.8569 31.8412C81.076 31.6211 81.1808 31.3532 81.1808 31.0184V28.4734H83.8001C85.1526 28.4734 86.2575 28.0907 87.1052 27.3252C87.953 26.5598 88.3816 25.6318 88.3816 24.5315C88.3816 23.4312 87.953 22.5031 87.1052 21.7377C86.2575 20.9723 85.1526 20.5896 83.8001 20.5896H80.0378C79.7139 20.5896 79.4377 20.6948 79.2186 20.9149C78.9995 21.135 78.8948 21.4124 78.8948 21.7377V31.0184C78.8948 31.3437 78.9995 31.6211 79.2186 31.8412C79.4377 32.0612 79.7044 32.1665 80.0378 32.1665ZM81.1808 22.7232H83.8001C84.524 22.7232 85.0669 22.8858 85.4479 23.2111C85.8289 23.5364 86.0099 23.9766 86.0099 24.5219C86.0099 25.0673 85.8194 25.5074 85.4479 25.8327C85.0669 26.158 84.524 26.3206 83.8001 26.3206H81.1808V22.7041V22.7232Z" fill="white"/>
<path d="M98.5352 31.0375C99.5067 30.119 99.9925 28.9901 99.9925 27.6506V25.0195C99.9925 23.68 99.5067 22.551 98.5352 21.6325C97.5636 20.714 96.3349 20.2548 94.8395 20.2548C93.3441 20.2548 92.1154 20.714 91.1438 21.6325C90.1723 22.551 89.6865 23.68 89.6865 25.0195V27.6506C89.6865 28.9901 90.1723 30.119 91.1438 31.0375C92.1154 31.956 93.3441 32.4153 94.8395 32.4153C96.3349 32.4153 97.5636 31.956 98.5352 31.0375ZM91.982 27.6506V25.0195C91.982 24.2636 92.2487 23.6322 92.7726 23.1346C93.2965 22.6371 93.9918 22.3884 94.8395 22.3884C95.6872 22.3884 96.3825 22.6371 96.9064 23.1346C97.4398 23.6322 97.697 24.2636 97.697 25.0195V27.6506C97.697 28.4064 97.4303 29.0379 96.9064 29.5354C96.3825 30.0329 95.6872 30.2817 94.8395 30.2817C93.9918 30.2817 93.2965 30.0329 92.7726 29.5354C92.2392 29.0379 91.982 28.4064 91.982 27.6506Z" fill="white"/>
<path d="M110.175 31.4585C111.07 30.8271 111.518 30.2339 111.518 29.6981C111.518 29.4111 111.413 29.1623 111.203 28.9518C110.994 28.7413 110.746 28.6361 110.46 28.6361C110.137 28.6361 109.832 28.77 109.565 29.0475C109.327 29.2867 109.127 29.478 108.955 29.612C108.794 29.7459 108.527 29.899 108.146 30.0425C107.774 30.1956 107.365 30.2721 106.946 30.2721C106.098 30.2721 105.403 30.0234 104.879 29.5259C104.345 29.0283 104.088 28.3969 104.088 27.641V25.0099C104.088 24.2541 104.355 23.6226 104.879 23.1251C105.403 22.6276 106.098 22.3788 106.946 22.3788C107.384 22.3788 107.755 22.4362 108.079 22.5415C108.403 22.6467 108.632 22.7615 108.774 22.8668C108.917 22.972 109.098 23.1442 109.317 23.3547C109.594 23.6322 109.889 23.7661 110.213 23.7661C110.498 23.7661 110.746 23.6609 110.956 23.4408C111.165 23.2303 111.27 22.9816 111.27 22.6945C111.27 22.1587 110.86 21.6134 110.051 21.0585C109.241 20.5035 108.203 20.2261 106.936 20.2261C105.441 20.2261 104.212 20.6853 103.241 21.6038C102.269 22.5223 101.783 23.6513 101.783 24.9908V27.6219C101.783 28.9614 102.269 30.0904 103.241 31.0089C104.212 31.9274 105.441 32.3866 106.936 32.3866C108.203 32.3866 109.279 32.0709 110.175 31.4298V31.4585Z" fill="white"/>
<path d="M120.69 25.8805C120.814 25.8327 120.957 25.7561 121.119 25.6413C121.29 25.5265 121.452 25.383 121.614 25.2204C121.776 25.0577 121.919 24.8281 122.043 24.5315C122.167 24.2349 122.224 23.9096 122.224 23.546C122.224 22.7615 121.862 22.063 121.147 21.4794C120.424 20.8862 119.481 20.5896 118.299 20.5896H114.213C113.889 20.5896 113.613 20.6948 113.394 20.9149C113.175 21.135 113.07 21.4124 113.07 21.7377V30.9323C113.07 31.2576 113.175 31.535 113.394 31.7551C113.613 31.9751 113.88 32.0804 114.213 32.0804H118.709C119.928 32.0804 120.928 31.7455 121.709 31.0853C122.49 30.4252 122.881 29.6598 122.881 28.7987C122.881 28.3394 122.795 27.928 122.624 27.5644C122.452 27.2009 122.262 26.933 122.052 26.7416C121.843 26.5598 121.595 26.3972 121.328 26.2728C121.052 26.1484 120.871 26.0719 120.766 26.0527C120.662 26.0336 120.576 26.0145 120.509 26.0049V25.9188L120.69 25.871V25.8805ZM115.356 22.7232H118.299C118.814 22.7232 119.195 22.8284 119.462 23.0389C119.728 23.2494 119.852 23.5269 119.852 23.8809C119.852 24.2636 119.719 24.5698 119.462 24.7802C119.204 25.0003 118.814 25.1055 118.299 25.1055H115.356V22.7232ZM120.052 29.5737C119.747 29.8224 119.3 29.9564 118.709 29.9564H115.356V27.0861H118.709C119.309 27.0861 119.757 27.22 120.062 27.4783C120.366 27.7462 120.509 28.1002 120.509 28.5595C120.509 28.99 120.357 29.3249 120.052 29.5737Z" fill="white"/>
<path d="M125.824 32.09H132.939C133.225 32.09 133.473 31.9847 133.682 31.7647C133.892 31.5542 133.997 31.3054 133.997 31.0184C133.997 30.7313 133.892 30.4826 133.682 30.2721C133.473 30.0616 133.225 29.9564 132.939 29.9564H126.967V27.3252H131.301C131.587 27.3252 131.815 27.2296 132.006 27.0478C132.187 26.866 132.282 26.6268 132.282 26.3398C132.282 26.0527 132.187 25.8231 132.006 25.6318C131.825 25.45 131.587 25.3543 131.301 25.3543H126.967V22.7232H132.768C133.054 22.7232 133.301 22.6179 133.511 22.3979C133.72 22.1874 133.825 21.9386 133.825 21.6516C133.825 21.3646 133.72 21.1158 133.511 20.9053C133.301 20.6948 133.054 20.5896 132.768 20.5896H125.815C125.491 20.5896 125.215 20.6948 124.995 20.9149C124.776 21.135 124.672 21.4124 124.672 21.7377V30.9323C124.672 31.2576 124.776 31.535 124.995 31.7551C125.215 31.9751 125.481 32.0804 125.815 32.0804L125.824 32.09Z" fill="white"/>
<path d="M135.311 22.7232H138.092V31.0184C138.092 31.3629 138.197 31.6308 138.397 31.8508C138.597 32.0613 138.883 32.1665 139.235 32.1665C139.588 32.1665 139.864 32.0613 140.073 31.8508C140.283 31.6403 140.388 31.3629 140.388 31.0184V22.7232H143.169C143.493 22.7232 143.769 22.618 143.988 22.4075C144.207 22.197 144.312 21.9483 144.312 21.6517C144.312 21.3551 144.207 21.1063 143.988 20.8958C143.769 20.6853 143.502 20.5801 143.169 20.5801H135.32C134.997 20.5801 134.72 20.6853 134.501 20.8958C134.282 21.1063 134.177 21.3551 134.177 21.6517C134.177 21.9483 134.282 22.197 134.501 22.4075C134.72 22.618 134.987 22.7232 135.32 22.7232H135.311Z" fill="white"/>
<path d="M146.76 32.1666C147.236 32.1666 147.627 31.9752 147.903 31.5925L153.218 24.6942H153.294V31.0185C153.294 31.3629 153.399 31.6308 153.599 31.8509C153.799 32.0613 154.085 32.1666 154.437 32.1666C154.789 32.1666 155.075 32.0613 155.275 31.8509C155.475 31.6404 155.58 31.3629 155.58 31.0185V21.6517C155.58 21.3264 155.475 21.0489 155.256 20.8289C155.037 20.6088 154.761 20.5036 154.437 20.5036C153.961 20.5036 153.58 20.6949 153.294 21.0776L147.979 27.9759H147.893V21.6517C147.893 21.3168 147.789 21.0394 147.589 20.8193C147.389 20.6088 147.103 20.494 146.75 20.494C146.398 20.494 146.112 20.5993 145.912 20.8193C145.712 21.0298 145.607 21.3073 145.607 21.6517V31.0185C145.607 31.3438 145.712 31.6212 145.931 31.8413C146.15 32.0613 146.427 32.1666 146.75 32.1666H146.76Z" fill="white"/>
<path d="M163.105 22.7232H165.886C166.21 22.7232 166.486 22.618 166.705 22.4075C166.924 22.197 167.029 21.9483 167.029 21.6517C167.029 21.3551 166.924 21.1063 166.705 20.8958C166.486 20.6853 166.219 20.5801 165.886 20.5801H158.037C157.713 20.5801 157.437 20.6853 157.218 20.8958C156.999 21.1063 156.894 21.3551 156.894 21.6517C156.894 21.9483 156.999 22.197 157.218 22.4075C157.437 22.618 157.704 22.7232 158.037 22.7232H160.819V31.0184C160.819 31.3629 160.923 31.6308 161.123 31.8508C161.323 32.0613 161.609 32.1665 161.962 32.1665C162.314 32.1665 162.59 32.0613 162.8 31.8508C163.009 31.6403 163.114 31.3629 163.114 31.0184V22.7232H163.105Z" fill="white"/>
<path d="M177.344 30.2721C177.135 30.0616 176.887 29.9564 176.601 29.9564H170.629V27.3252H174.963C175.249 27.3252 175.477 27.2296 175.668 27.0478C175.849 26.866 175.944 26.6268 175.944 26.3398C175.944 26.0527 175.849 25.8231 175.668 25.6318C175.487 25.45 175.249 25.3543 174.963 25.3543H170.629V22.7232H176.43C176.716 22.7232 176.963 22.6179 177.173 22.3979C177.382 22.1778 177.487 21.9386 177.487 21.6516C177.487 21.3646 177.382 21.1158 177.173 20.9053C176.963 20.6948 176.716 20.5896 176.43 20.5896H169.477C169.153 20.5896 168.877 20.6948 168.658 20.9149C168.439 21.135 168.334 21.4124 168.334 21.7377V30.9323C168.334 31.2576 168.439 31.535 168.658 31.7551C168.877 31.9751 169.143 32.0804 169.477 32.0804H176.592C176.878 32.0804 177.125 31.9751 177.335 31.7551C177.544 31.5446 177.649 31.2958 177.649 31.0088C177.649 30.7218 177.544 30.473 177.335 30.2625L177.344 30.2721Z" fill="white"/>
<path d="M187.879 20.5896H181.421C181.097 20.5896 180.821 20.6948 180.602 20.9149C180.383 21.135 180.278 21.4124 180.278 21.7377V26.6651C180.278 27.7367 180.116 28.5308 179.792 29.0474C179.468 29.5641 178.954 30.0042 178.23 30.3582C177.849 30.54 177.659 30.8749 177.659 31.3437C177.659 31.6307 177.763 31.8795 177.983 32.09C178.202 32.3004 178.44 32.4153 178.725 32.4153C179.63 32.4153 180.497 31.8699 181.326 30.7792C182.154 29.6885 182.564 28.3203 182.564 26.6651V22.7232H186.736V31.0184C186.736 31.3437 186.841 31.6211 187.06 31.8412C187.279 32.0612 187.546 32.1665 187.879 32.1665C188.212 32.1665 188.479 32.0612 188.698 31.8412C188.917 31.6211 189.022 31.3532 189.022 31.0184V21.7377C189.022 21.4124 188.917 21.135 188.698 20.9149C188.479 20.6948 188.212 20.5896 187.879 20.5896Z" fill="white"/>
<path d="M196.546 24.2062H193.927V21.6612C193.927 21.3359 193.822 21.0584 193.603 20.8384C193.384 20.6183 193.117 20.5131 192.784 20.5131C192.451 20.5131 192.184 20.6183 191.965 20.8384C191.746 21.0584 191.641 21.3263 191.641 21.6612V30.9418C191.641 31.2671 191.746 31.5446 191.965 31.7647C192.184 31.9847 192.451 32.09 192.784 32.09H196.546C197.899 32.09 199.004 31.7072 199.852 30.9418C200.699 30.1764 201.128 29.2484 201.128 28.1481C201.128 27.0478 200.699 26.1197 199.852 25.3543C199.004 24.5889 197.899 24.2062 196.546 24.2062ZM198.194 29.4588C197.813 29.7841 197.27 29.9468 196.546 29.9468H193.927V26.3302H196.546C197.27 26.3302 197.813 26.4929 198.194 26.8182C198.566 27.1435 198.756 27.5836 198.756 28.1289C198.756 28.6743 198.566 29.1144 198.194 29.4397V29.4588Z" fill="white"/>
<path d="M211.186 28.6361C210.862 28.6361 210.558 28.77 210.291 29.0475C210.053 29.2867 209.853 29.478 209.681 29.612C209.519 29.7459 209.253 29.899 208.872 30.0425C208.5 30.1956 208.1 30.2721 207.672 30.2721C206.824 30.2721 206.128 30.0234 205.605 29.5259C205.071 29.0283 204.814 28.3969 204.814 27.641V25.0099C204.814 24.2541 205.081 23.6226 205.605 23.1251C206.128 22.6276 206.824 22.3788 207.672 22.3788C208.11 22.3788 208.481 22.4362 208.805 22.5415C209.129 22.6467 209.357 22.7615 209.5 22.8668C209.643 22.972 209.824 23.1442 210.043 23.3547C210.319 23.6322 210.615 23.7661 210.939 23.7661C211.224 23.7661 211.472 23.6609 211.682 23.4408C211.891 23.2208 211.996 22.9816 211.996 22.6945C211.996 22.1587 211.586 21.6134 210.777 21.0585C209.967 20.5035 208.929 20.2261 207.662 20.2261C206.167 20.2261 204.938 20.6853 203.966 21.6038C202.995 22.5223 202.509 23.6513 202.509 24.9908V27.6219C202.509 28.9614 202.995 30.0904 203.966 31.0089C204.938 31.9274 206.167 32.3866 207.662 32.3866C208.929 32.3866 210.005 32.0709 210.9 31.4298C211.796 30.7984 212.243 30.2052 212.243 29.6694C212.243 29.3823 212.139 29.1336 211.929 28.9231C211.72 28.7126 211.472 28.6074 211.186 28.6074V28.6361Z" fill="white"/>
<path d="M219.597 25.4118L222.788 22.4745L222.883 22.3597C222.95 22.2831 223.016 22.1683 223.083 22.0152C223.15 21.8622 223.188 21.7091 223.188 21.5751C223.188 21.2881 223.083 21.0393 222.873 20.8288C222.664 20.6184 222.416 20.5035 222.13 20.5035C221.807 20.5035 221.502 20.6375 221.235 20.915L216.082 25.7562V21.6517C216.082 21.3264 215.977 21.0489 215.758 20.8288C215.539 20.6088 215.273 20.5035 214.939 20.5035C214.606 20.5035 214.339 20.6088 214.12 20.8288C213.901 21.0489 213.796 21.3168 213.796 21.6517V31.0184C213.796 31.3629 213.901 31.6308 214.101 31.8508C214.301 32.0613 214.587 32.1665 214.939 32.1665C215.292 32.1665 215.577 32.0613 215.777 31.8508C215.977 31.6403 216.082 31.3629 216.082 31.0184V28.6361L217.959 26.9043L221.797 31.7551L221.892 31.8508C221.959 31.9178 222.064 31.9848 222.207 32.0517C222.349 32.1187 222.511 32.157 222.692 32.157C223.007 32.157 223.264 32.0517 223.464 31.8412C223.664 31.6308 223.759 31.382 223.759 31.0854C223.759 30.8079 223.654 30.54 223.435 30.2626L219.597 25.4022V25.4118Z" fill="white"/>
<path d="M233.913 20.5036C233.437 20.5036 233.056 20.6949 232.77 21.0776L227.455 27.9759H227.369V21.6517C227.369 21.3168 227.264 21.0394 227.064 20.8193C226.864 20.6088 226.579 20.494 226.226 20.494C225.874 20.494 225.588 20.5993 225.388 20.8193C225.188 21.0298 225.083 21.3073 225.083 21.6517V31.0185C225.083 31.3438 225.188 31.6212 225.407 31.8413C225.626 32.0613 225.902 32.1666 226.226 32.1666C226.702 32.1666 227.093 31.9752 227.369 31.5925L232.684 24.6942H232.76V31.0185C232.76 31.3629 232.865 31.6308 233.065 31.8509C233.265 32.0613 233.551 32.1666 233.903 32.1666C234.256 32.1666 234.541 32.0613 234.742 31.8509C234.942 31.6404 235.046 31.3629 235.046 31.0185V21.6517C235.046 21.3264 234.942 21.0489 234.722 20.8289C234.503 20.6088 234.227 20.5036 233.903 20.5036H233.913Z" fill="white"/>
<path d="M246.505 30.0234L243.285 26.1198L246.248 22.5415L246.362 22.4266C246.429 22.3501 246.495 22.2353 246.562 22.0822C246.629 21.9291 246.657 21.7856 246.657 21.6421C246.657 21.3168 246.543 21.0489 246.324 20.8288C246.105 20.6088 245.829 20.5035 245.514 20.5035C245.105 20.5035 244.743 20.6949 244.447 21.0776L241.79 24.3115L239.133 21.0776C238.828 20.6949 238.475 20.5035 238.066 20.5035C237.751 20.5035 237.485 20.6088 237.256 20.8288C237.037 21.0489 236.923 21.3168 236.923 21.6517C236.923 21.9865 237.056 22.2831 237.332 22.551L240.285 26.1389L237.085 30.033L236.97 30.1765C236.885 30.2626 236.799 30.387 236.713 30.5592C236.627 30.7218 236.589 30.8749 236.589 31.0184C236.589 31.3246 236.704 31.5925 236.923 31.8221C237.151 32.0517 237.418 32.1665 237.732 32.1665C237.97 32.1665 238.161 32.1283 238.304 32.0517C238.447 31.9752 238.609 31.8221 238.799 31.602L241.78 27.9472V27.995L244.762 31.602C244.952 31.8317 245.114 31.9848 245.257 32.0613C245.4 32.1378 245.59 32.1761 245.829 32.1761C246.143 32.1761 246.419 32.0613 246.638 31.8317C246.867 31.6021 246.972 31.3342 246.972 31.028C246.972 30.7027 246.81 30.3678 246.476 30.0425L246.505 30.0234Z" fill="white"/>
<path d="M75.2944 37.3906C74.8182 37.3906 74.4372 37.5819 74.1514 37.9646L68.8365 44.8629H68.7508V38.5387C68.7508 38.2038 68.6461 37.9263 68.446 37.7063C68.246 37.4958 67.9603 37.381 67.6078 37.381C67.2554 37.381 66.9697 37.4862 66.7696 37.7063C66.5696 37.9168 66.4648 38.1942 66.4648 38.5387V47.9054C66.4648 48.2307 66.5696 48.5082 66.7887 48.7283C67.0078 48.9483 67.284 49.0536 67.6078 49.0536C68.0841 49.0536 68.4746 48.8622 68.7508 48.4795L74.0657 41.5812H74.1419V47.9054C74.1419 48.2499 74.2467 48.5178 74.4467 48.7378C74.6467 48.9483 74.9325 49.0536 75.2849 49.0536C75.6373 49.0536 75.9231 48.9483 76.1231 48.7378C76.3231 48.5273 76.4279 48.2499 76.4279 47.9054V38.5387C76.4279 38.2134 76.3231 37.9359 76.1041 37.7158C75.885 37.4958 75.6088 37.3906 75.2849 37.3906H75.2944Z" fill="white"/>
<path d="M87.6386 37.3905C87.3147 37.3905 87.0385 37.4957 86.8194 37.7158C86.6004 37.9359 86.4956 38.2038 86.4956 38.5386V42.1552H81.3426V38.5386C81.3426 38.2133 81.2378 37.9359 81.0188 37.7158C80.7997 37.4957 80.533 37.3905 80.1996 37.3905C79.8663 37.3905 79.5996 37.4957 79.3805 37.7158C79.1614 37.9359 79.0566 38.2038 79.0566 38.5386V47.9054C79.0566 48.2498 79.1614 48.5177 79.3614 48.7378C79.5615 48.9483 79.8472 49.0535 80.1996 49.0535C80.552 49.0535 80.8378 48.9483 81.0378 48.7378C81.2378 48.5273 81.3426 48.2498 81.3426 47.9054V44.1261H86.4956V47.9054C86.4956 48.2498 86.6004 48.5177 86.8004 48.7378C87.0004 48.9483 87.2862 49.0535 87.6386 49.0535C87.991 49.0535 88.2768 48.9483 88.4768 48.7378C88.6768 48.5273 88.7816 48.2498 88.7816 47.9054V38.5386C88.7816 38.2133 88.6768 37.9359 88.4577 37.7158C88.2387 37.4957 87.9624 37.3905 87.6386 37.3905Z" fill="white"/>
<path d="M100.231 37.3906C99.7545 37.3906 99.3735 37.5819 99.0877 37.9646L93.7728 44.8629H93.6871V38.5387C93.6871 38.2038 93.5823 37.9263 93.3823 37.7063C93.1823 37.4958 92.8965 37.381 92.5441 37.381C92.1917 37.381 91.9059 37.4862 91.7059 37.7063C91.5059 37.9168 91.4011 38.1942 91.4011 38.5387V47.9054C91.4011 48.2307 91.5059 48.5082 91.725 48.7283C91.944 48.9483 92.2203 49.0536 92.5441 49.0536C93.0204 49.0536 93.4109 48.8622 93.6871 48.4795L99.002 41.5812H99.0782V47.9054C99.0782 48.2499 99.183 48.5178 99.383 48.7378C99.583 48.9483 99.8688 49.0536 100.221 49.0536C100.574 49.0536 100.859 48.9483 101.059 48.7378C101.259 48.5273 101.364 48.2499 101.364 47.9054V38.5387C101.364 38.2134 101.259 37.9359 101.04 37.7158C100.821 37.4958 100.545 37.3906 100.221 37.3906H100.231Z" fill="white"/>
<path d="M114.051 46.8339H113.556V38.5387C113.556 38.2038 113.451 37.9263 113.251 37.7063C113.051 37.4958 112.765 37.381 112.413 37.381C112.061 37.381 111.775 37.4862 111.575 37.7063C111.375 37.9168 111.27 38.1942 111.27 38.5387V46.8339H106.279V38.5387C106.279 38.2038 106.174 37.9263 105.974 37.7063C105.774 37.4958 105.488 37.381 105.136 37.381C104.783 37.381 104.498 37.4862 104.298 37.7063C104.098 37.9168 103.993 38.1942 103.993 38.5387V47.8193C103.993 48.1446 104.098 48.4221 104.317 48.6421C104.536 48.8622 104.803 48.9674 105.136 48.9674H112.899V50.4504C112.899 50.7853 113.003 51.0628 113.204 51.2828C113.404 51.4933 113.689 51.5986 114.042 51.5986C114.394 51.5986 114.68 51.4933 114.88 51.2828C115.08 51.0723 115.185 50.7949 115.185 50.4504V47.982C115.185 47.6567 115.08 47.3792 114.861 47.1592C114.642 46.9391 114.366 46.8339 114.042 46.8339H114.051Z" fill="white"/>
<path d="M125.748 37.3906C125.272 37.3906 124.891 37.5819 124.605 37.9646L119.29 44.8629H119.204V38.5387C119.204 38.2038 119.099 37.9263 118.899 37.7063C118.699 37.4958 118.414 37.381 118.061 37.381C117.709 37.381 117.423 37.4862 117.223 37.7063C117.023 37.9168 116.918 38.1942 116.918 38.5387V47.9054C116.918 48.2307 117.023 48.5082 117.242 48.7283C117.461 48.9483 117.737 49.0536 118.061 49.0536C118.537 49.0536 118.928 48.8622 119.204 48.4795L124.519 41.5812H124.595V47.9054C124.595 48.2499 124.7 48.5178 124.9 48.7378C125.1 48.9483 125.386 49.0536 125.738 49.0536C126.091 49.0536 126.376 48.9483 126.576 48.7378C126.776 48.5273 126.881 48.2499 126.881 47.9054V38.5387C126.881 38.2134 126.776 37.9359 126.557 37.7158C126.338 37.4958 126.062 37.3906 125.738 37.3906H125.748Z" fill="white"/>
<path d="M135.682 38.4716C135.539 38.1081 135.32 37.7923 135.025 37.534C134.73 37.2757 134.377 37.1417 133.958 37.1417C133.539 37.1417 133.187 37.2565 132.892 37.4766C132.596 37.6966 132.377 37.9741 132.234 38.2898L128.472 47.1591L128.443 47.2739C128.415 47.3504 128.377 47.4461 128.358 47.5705C128.329 47.6949 128.32 47.8001 128.32 47.8958C128.32 48.2115 128.434 48.489 128.653 48.7091C128.872 48.9291 129.148 49.0439 129.463 49.0439C130.034 49.0439 130.434 48.7186 130.691 48.0584L131.425 46.1736H136.53L137.263 48.068C137.502 48.7282 137.902 49.0535 138.445 49.0535C138.749 49.0535 139.007 48.9482 139.226 48.7282C139.445 48.5081 139.549 48.2402 139.549 47.9341C139.549 47.7236 139.492 47.4748 139.388 47.2069L135.682 38.4716ZM132.282 44.04L133.949 39.8494H134.044L135.711 44.04H132.272H132.282Z" fill="white"/>
<path d="M147.836 37.4766H139.988C139.664 37.4766 139.388 37.5818 139.169 37.7923C138.949 38.0028 138.845 38.2515 138.845 38.5481C138.845 38.8447 138.949 39.0935 139.169 39.304C139.388 39.5145 139.654 39.6197 139.988 39.6197H142.769V47.9149C142.769 48.2593 142.874 48.5272 143.074 48.7473C143.274 48.9578 143.56 49.063 143.912 49.063C144.264 49.063 144.541 48.9578 144.75 48.7473C144.96 48.5368 145.064 48.2593 145.064 47.9149V39.6197H147.846C148.17 39.6197 148.446 39.5145 148.665 39.304C148.884 39.0935 148.989 38.8447 148.989 38.5481C148.989 38.2515 148.884 38.0028 148.665 37.7923C148.446 37.5818 148.179 37.4766 147.846 37.4766H147.836Z" fill="white"/>
<path d="M159.114 37.3906C158.637 37.3906 158.256 37.5819 157.971 37.9646L152.656 44.8629H152.57V38.5387C152.57 38.2038 152.465 37.9263 152.265 37.7063C152.065 37.4958 151.779 37.381 151.427 37.381C151.075 37.381 150.789 37.4862 150.589 37.7063C150.389 37.9168 150.284 38.1942 150.284 38.5387V47.9054C150.284 48.2307 150.389 48.5082 150.608 48.7283C150.827 48.9483 151.103 49.0536 151.427 49.0536C151.903 49.0536 152.294 48.8622 152.57 48.4795L157.885 41.5812H157.961V47.9054C157.961 48.2499 158.066 48.5178 158.266 48.7378C158.466 48.9483 158.752 49.0536 159.104 49.0536C159.456 49.0536 159.742 48.9483 159.942 48.7378C160.142 48.5273 160.247 48.2499 160.247 47.9054V38.5387C160.247 38.2134 160.142 37.9359 159.923 37.7158C159.704 37.4958 159.428 37.3906 159.104 37.3906H159.114Z" fill="white"/>
<path d="M171.867 43.6382C171.658 43.4564 171.41 43.2937 171.144 43.1693C170.867 43.045 170.686 42.9684 170.582 42.9493C170.477 42.9301 170.391 42.911 170.324 42.9014V42.8153L170.505 42.7675C170.629 42.7197 170.772 42.6431 170.934 42.5283C171.106 42.4135 171.267 42.27 171.429 42.1073C171.591 41.9447 171.734 41.715 171.858 41.4185C171.982 41.1219 172.039 40.7965 172.039 40.433C172.039 39.6484 171.677 38.95 170.963 38.3664C170.239 37.7732 169.296 37.4766 168.115 37.4766H164.028C163.705 37.4766 163.428 37.5818 163.209 37.8019C162.99 38.0219 162.885 38.2994 162.885 38.6247V47.8192C162.885 48.1445 162.99 48.422 163.209 48.6421C163.428 48.8621 163.695 48.9674 164.028 48.9674H168.524C169.743 48.9674 170.744 48.6325 171.525 47.9723C172.306 47.3121 172.696 46.5467 172.696 45.6856C172.696 45.2264 172.61 44.815 172.439 44.4514C172.268 44.0878 172.077 43.8199 171.867 43.6286V43.6382ZM165.171 39.6102H168.115C168.629 39.6102 169.01 39.7154 169.277 39.9259C169.543 40.1364 169.667 40.4138 169.667 40.7678C169.667 41.1506 169.534 41.4567 169.277 41.6672C169.02 41.8873 168.629 41.9925 168.115 41.9925H165.171V39.6102ZM169.867 46.4606C169.562 46.7094 169.115 46.8433 168.524 46.8433H165.171V43.973H168.524C169.124 43.973 169.572 44.107 169.877 44.3653C170.182 44.6332 170.324 44.9872 170.324 45.4464C170.324 45.877 170.172 46.2119 169.867 46.4606Z" fill="white"/>
<path d="M4.8577 23.5269C6.89604 25.1055 9.25821 26.0049 11.7633 26.2441C12.1062 26.2919 12.3824 26.2824 12.6205 26.2824H23.7456C24.6028 26.2824 25.3934 25.5744 25.3934 24.6272V13.5287C25.3934 13.2129 25.3267 12.9546 25.3172 12.6676C25.1648 10.1513 24.2218 7.78804 22.6502 5.74056C22.0216 4.95601 21.3167 4.248 20.4595 3.53999C20.3833 3.46345 19.0879 2.60236 18.6212 2.36316C18.4498 2.24835 18.2783 2.18138 18.0307 2.04743C16.3828 1.26288 14.5826 0.870605 12.7062 0.870605C9.88686 0.870605 7.14368 1.81781 4.86723 3.54956C4.08619 4.18102 3.30514 4.88903 2.6765 5.75012C0.942966 8.02723 0 10.7062 0 13.5382C0 16.3703 0.942966 19.0492 2.66697 21.3263C3.29562 22.1109 4.00046 22.8189 4.8577 23.5269ZM4.91485 7.74977L5.0101 7.62539C5.47682 7.07046 6.10547 6.44856 6.65791 5.97018C8.45812 4.55416 10.4965 3.76961 12.6872 3.76961C14.1731 3.76961 15.5066 4.08535 16.7638 4.6307C16.9162 4.70725 17.0782 4.78379 17.2306 4.8699C17.5449 5.02298 18.7926 5.97018 18.7926 5.97018C19.4213 6.439 19.9642 7.07046 20.4405 7.62539C21.612 9.11795 22.3169 11.0123 22.4788 12.8972C22.4788 12.8972 22.555 13.4521 22.555 13.7583V23.4408H12.6872C12.4681 23.4408 11.9442 23.4025 11.9442 23.4025C10.0678 23.2494 8.1438 22.4936 6.64839 21.3933C6.01974 20.7618 5.47682 20.2165 5.00058 19.585C3.66709 17.8532 2.96225 15.8058 2.96225 13.6052C2.96225 11.4046 3.57184 9.48152 4.90533 7.74977H4.91485Z" fill="white"/>
<path d="M23.8217 28.5021H12.7728C12.4585 28.5021 12.2013 28.5691 11.9156 28.5787C9.41055 28.7317 7.0579 29.6789 5.01957 31.2576C4.23852 31.8891 3.53368 32.5971 2.82884 33.4582C2.75264 33.5347 1.8954 34.8359 1.65727 35.3047C1.54297 35.477 1.4763 35.6492 1.34295 35.8979C0.561908 37.5531 0.171387 39.3614 0.171387 41.2463C0.171387 44.0783 1.11435 46.8338 2.83836 49.1205C3.46701 49.905 4.17185 50.6991 5.02909 51.321C7.30555 53.0528 9.96299 54 12.7824 54C15.6017 54 18.2687 53.0528 20.5356 51.321C21.3167 50.6896 22.0215 49.9816 22.7264 49.1205C24.298 47.073 25.1933 44.7002 25.4315 42.1839C25.4791 41.8395 25.4695 41.562 25.4695 41.3228V30.1478C25.4695 29.2867 24.7647 28.4926 23.8217 28.4926V28.5021ZM22.6502 41.2558C22.6502 41.4759 22.6121 42.0021 22.6121 42.0021C22.4597 43.887 21.7072 45.8196 20.6118 47.3218C19.9832 47.9532 19.4403 48.4986 18.8116 48.977C17.0876 50.3164 15.0493 51.0244 12.8586 51.0244C10.6678 51.0244 8.75333 50.4121 7.02932 49.0726L6.9055 48.977C6.35305 48.5081 5.73393 47.8767 5.25769 47.3218C3.848 45.5135 3.06696 43.466 3.06696 41.2654C3.06696 39.7729 3.38128 38.4334 3.9242 37.1704C4.0004 37.0174 4.0766 36.8547 4.16232 36.7016C4.31472 36.3859 5.25769 35.1325 5.25769 35.1325C5.72441 34.5011 6.35305 33.9557 6.9055 33.4773C8.39139 32.3005 10.2773 31.5925 12.1537 31.4298C12.1537 31.4298 12.7062 31.3533 13.011 31.3533H22.6502V41.2654V41.2558Z" fill="white"/>
<path d="M52.0059 35.3047C51.7678 34.8359 50.9106 33.5347 50.8344 33.4486C50.1295 32.5875 49.4247 31.8795 48.6436 31.248C46.6053 29.6694 44.2526 28.7317 41.7476 28.5691C41.4619 28.5595 41.1952 28.4926 40.8904 28.4926H29.8415C28.8985 28.4926 28.1936 29.2771 28.1936 30.1478V41.3228C28.1936 41.562 28.1841 41.8395 28.2317 42.1839C28.4699 44.7002 29.3652 47.073 30.9368 49.1205C31.6417 49.9816 32.3465 50.6896 33.1276 51.321C35.404 53.0528 38.0615 54 40.8808 54C43.7002 54 46.3672 53.0528 48.6341 51.321C49.4914 50.6896 50.1962 49.905 50.8248 49.1205C52.5488 46.8338 53.4918 44.0879 53.4918 41.2463C53.4918 39.3614 53.1013 37.5436 52.3202 35.8979C52.1869 35.6492 52.1202 35.4865 52.0059 35.3047ZM48.4055 47.3026C47.9388 47.8575 47.3101 48.4794 46.7577 48.9578L46.6339 49.0535C44.9099 50.393 42.9954 51.0053 40.8046 51.0053C38.6139 51.0053 36.5756 50.2973 34.8516 48.9578C34.2229 48.489 33.68 47.9341 33.0514 47.3026C31.956 45.8101 31.213 43.8774 31.0511 41.983C31.0511 41.983 31.0035 41.4663 31.013 41.2367V31.315H40.6522C40.9666 31.315 41.5095 31.3916 41.5095 31.3916C43.3859 31.5446 45.2718 32.2527 46.7577 33.439C47.3101 33.9079 47.9293 34.4628 48.4055 35.0943C48.4055 35.0943 49.3485 36.3572 49.5009 36.6634C49.5771 36.8164 49.6533 36.9791 49.739 37.1322C50.2914 38.3951 50.5962 39.725 50.5962 41.2271C50.5962 43.4277 49.8152 45.4752 48.4055 47.2835V47.3026Z" fill="white"/>
<path d="M44.0337 0.153076H43.7194C43.0146 0.172212 42.4621 0.966329 42.4621 1.67434C42.4621 2.53543 43.1669 3.30084 44.0242 3.30084H48.8819L40.0333 12.2753C39.4046 12.9068 39.4046 13.7679 40.0333 14.3994C40.3476 14.7151 40.7381 14.7916 41.1286 14.7916C41.5191 14.7916 41.9097 14.6385 42.224 14.3994L50.9202 5.58752V10.3905C50.9202 11.2516 51.7394 11.9692 52.5966 11.9692C53.3777 11.9692 54.1206 11.2516 54.1301 10.5436V10.3905V1.89439V0.153076H44.0242H44.0337Z" fill="white"/>
<path d="M50.9296 13.299V13.5382C50.9296 13.854 50.9201 14.1314 50.901 14.4185C50.7486 16.3894 49.9866 18.1881 48.7389 19.7572C48.3484 20.3121 47.0911 21.4124 47.0149 21.489C46.8148 21.6708 46.2338 22.0822 45.7576 22.3501C45.3671 22.5893 44.9765 22.7423 44.5003 22.9815C43.3287 23.4503 42.0714 23.6895 40.8141 23.6895C38.5472 23.6895 36.347 22.9815 34.5468 21.489C33.9181 21.0202 33.2895 20.3887 32.8227 19.7572C31.4131 17.9489 30.632 15.8249 30.632 13.4617C30.632 11.0985 31.3369 8.97444 32.7465 7.16615C33.299 6.53468 33.8419 5.90321 34.4706 5.4344C36.0326 4.17146 37.9186 3.42518 39.8712 3.26253C40.1474 3.2434 40.4236 3.23383 40.7379 3.23383H40.9761C40.5855 2.84156 40.2712 2.28663 40.2712 1.50208C40.2712 0.947154 40.4236 0.401796 40.7379 0.00952148C40.4236 0.00952148 40.0998 0.00952148 39.795 0.0382245C37.128 0.191307 34.623 1.27246 32.5084 2.85112C31.6417 3.55913 30.8606 4.26714 30.232 5.1378C28.4318 7.50102 27.4126 10.3331 27.4126 13.4043C27.4126 16.4755 28.3365 19.1832 30.1367 21.6229L30.232 21.7473C30.8606 22.6084 31.6417 23.326 32.5084 24.034C34.8611 25.8423 37.6805 26.866 40.7379 26.866C42.7001 26.866 44.6527 26.4737 46.3767 25.6031C46.6148 25.5265 46.7672 25.3639 47.0053 25.2873C47.3959 25.0481 47.7864 24.8185 48.1769 24.5793C49.3961 23.7182 50.6058 22.6945 51.2344 21.8238C52.8822 19.6998 53.8918 17.2218 54.0538 14.5524C54.0538 14.2271 54.0538 13.9592 54.0538 13.72C53.6633 14.0357 53.1965 14.1888 52.5679 14.1888C52.0154 14.1314 51.3963 13.7966 50.9201 13.3277L50.9296 13.299Z" fill="white"/>
</g>
<defs>
<clipPath id="clip0_83_11">
<rect width="247" height="54" fill="white"/>
</clipPath>
</defs>
</svg>
