<svg width="24" height="12" viewBox="0 0 24 12" fill="none" xmlns="http://www.w3.org/2000/svg">
<path d="M2.27625 12V2.584L0.11625 3.904V1.776L2.27625 0.48H4.24425V12H2.27625ZM6.97188 11.984V10.304L11.8999 5.912C12.2839 5.57067 12.5505 5.248 12.6999 4.944C12.8492 4.64 12.9239 4.34667 12.9239 4.064C12.9239 3.68 12.8412 3.33867 12.6759 3.04C12.5105 2.736 12.2812 2.496 11.9879 2.32C11.6999 2.144 11.3665 2.056 10.9879 2.056C10.5879 2.056 10.2332 2.14933 9.92388 2.336C9.61988 2.51733 9.38254 2.76 9.21188 3.064C9.04121 3.368 8.96121 3.696 8.97188 4.048H6.98788C6.98788 3.28 7.15854 2.61067 7.49988 2.04C7.84654 1.46933 8.32121 1.02667 8.92388 0.712C9.53188 0.397333 10.2332 0.24 11.0279 0.24C11.7639 0.24 12.4252 0.405333 13.0119 0.735999C13.5985 1.06133 14.0599 1.51467 14.3959 2.096C14.7319 2.672 14.8999 3.336 14.8999 4.088C14.8999 4.63733 14.8252 5.09867 14.6759 5.472C14.5265 5.84533 14.3025 6.18933 14.0039 6.504C13.7105 6.81867 13.3452 7.168 12.9079 7.552L9.41188 10.648L9.23588 10.168H14.8999V11.984H6.97188ZM19.5271 9.856V6.992H16.6631V5.48H19.5271V2.624H21.0391V5.48H23.8871V6.992H21.0391V9.856H19.5271Z" fill="white"/>
</svg>
